<svg xmlns="http://www.w3.org/2000/svg" version="1.1" xmlns:xlink="http://www.w3.org/1999/xlink" xmlns:svgjs="http://svgjs.dev/svgjs" width="1000" height="1000" viewBox="0 0 1000 1000"><g transform="matrix(1,0,0,1,-0.14221556886212738,-0.14221556886229791)"><svg viewBox="0 0 334 334" data-background-color="#ffffff" preserveAspectRatio="xMidYMid meet" height="1000" width="1000" xmlns="http://www.w3.org/2000/svg" xmlns:xlink="http://www.w3.org/1999/xlink"><g id="tight-bounds" transform="matrix(1,0,0,1,0.04749999999998522,0.04750000000001364)"><svg viewBox="0 0 333.90454557049503 333.90454557049503" height="333.90454557049503" width="333.90454557049503"><g><svg></svg></g><g><svg viewBox="0 0 333.90454557049503 333.90454557049503" height="333.90454557049503" width="333.90454557049503"><g><path d="M0 166.952c0-92.205 74.747-166.952 166.952-166.952 92.205 0 166.952 74.747 166.953 166.952 0 92.205-74.747 166.952-166.953 166.953-92.205 0-166.952-74.747-166.952-166.953zM166.952 316.63c82.665 0 149.677-67.013 149.678-149.678 0-82.665-67.013-149.677-149.678-149.677-82.665 0-149.677 67.013-149.677 149.677 0 82.665 67.013 149.677 149.677 149.678z" data-fill-palette-color="tertiary" fill="#915eff" stroke="transparent"></path><ellipse rx="160.27418187383762" ry="160.27418187383762" cx="166.95227278524752" cy="166.95227278524752" fill="#915eff" stroke="transparent" stroke-width="0" fill-opacity="1" data-fill-palette-color="tertiary"></ellipse></g><g transform="matrix(1,0,0,1,84.15769869799958,71.17305217166896)"><svg viewBox="0 0 165.58914817449588 191.55844122715712" height="191.55844122715712" width="165.58914817449588"><g><svg viewBox="0 0 165.58914817449588 191.55844122715712" height="191.55844122715712" width="165.58914817449588"><g><svg viewBox="0 0 165.58914817449588 191.55844122715712" height="191.55844122715712" width="165.58914817449588"><g><svg viewBox="0 0 165.58914817449588 191.55844122715712" height="191.55844122715712" width="165.58914817449588"><g><svg viewBox="0 0 165.58914817449588 191.55844122715712" height="191.55844122715712" width="165.58914817449588"><g><svg viewBox="0 0 165.58914817449588 191.55844122715712" height="191.55844122715712" width="165.58914817449588"><g transform="matrix(1,0,0,1,0,0)"><svg width="165.58914817449588" viewBox="0.25 -34.3 29.65 34.3" height="191.55844122715712" data-palette-color="#ffffff"><path d="M25.15-34.3L29.9-34.3 17.7 0 12.45 0 0.25-34.3 5.5-34.3 15.15-6.65 15.45-6.65 25.15-34.3Z" opacity="1" transform="matrix(1,0,0,1,0,0)" fill="#ffffff" class="undefined-text-0" data-fill-palette-color="quaternary" id="text-0"></path></svg></g></svg></g></svg></g></svg></g><g></g></svg></g></svg></g></svg></g></svg></g><defs></defs></svg><rect width="333.90454557049503" height="333.90454557049503" fill="none" stroke="none" visibility="hidden"></rect></g></svg></g></svg>